<svg xmlns="http://www.w3.org/2000/svg" viewBox="0 0 2702.68 2907.77"><defs><style>.cls-1{fill:none;stroke:#33baec;stroke-miterlimit:10;stroke-width:3px;}</style></defs><title>pd_components</title><g id="Front-back-body"><path id="front" class="cls-1" d="M584.26,2822.55c-9.26-3.43-8.39-48.94,24.45-70.11,4.33-24.63,30-83.88,32-92.55,2.73-11.63.68-58.14,5.47-66.35,8.89-15.73,12.31-52.67,6.84-62.24S574.39,2283,571,2258.38s-2.74-94.39,4.1-149.79c.69-8.89,6.16-16.42,3.42-67-.68-17.79,8.21-94.39,1.37-112.86s-90.17-399.57-64.54-496.39c7.12-37,29.9-158,35.6-207.89s29.9-189.38-31.33-356c2.85,62.65-29.9,152.35-29.9,165.17s1.43,71.19,0,82.58c-7.12,11.4-18.51,7.12-18.51,14.24,4.27,27.06-4.27,102.52-49.83,165.18C410,1319.82,363,1415.22,353,1462.21c5.44,26.38-20.62,140.11-35.63,167-.79,50.55-10.27,69.5-22.9,71.08s-7.9-74.24-9.48-69.5c-6.32,15.8-13.42,67.13-26.06,90-4,7.11-20.69,1.58-22.27-17.37s11.21-70.29,11.21-70.29c-16.58,39.49-25,87.21-35.54,98.72-6.76,7.36-26.92,3.21-21.32-30,4.36-25.89,15.79-77.4,15.79-77.4-15,28.43-30.88,78.59-45,82.14-20.11,5-7.48-34-4.32-43.44,2.68-8,19.27-92.83,24.24-118.35a2.07,2.07,0,0,0-3.76-1.54c-8.22,12.44-20.87,39.15-68.29,35.39-10.26-1.58,9.45-29.19,18.15-30l0,0c0-15,6.34-45,64-80.54,16.58-10.27,50.54-37.12,52.91-55.28s45-149.27,43.44-199.82,42.65-162.69,66.34-191.12c-3.16-44.23,0-162.69,3.95-178.49s14.22-34.74,17.37-40.27,7.11-57.66-1.58-69.5-15-148.48,89.25-173.75c10.26-1.58,5.53-24.48,42.65-19.74,27.64-16.59,91.61-64,139.78-66.35,10.27-.78,2.37-18.16,26.07-21.32,11.84-19.74,17.37-16.58,17.37-16.58-.79-22.12,3.16-82.14-.79-94s-4.74-5.52-14.21-27.64-45.81-26.81-38.7-70.66c-9.48-20.16-7.9-38.62,15.79-31.76-3.16-31.84-4.66-61.53.44-81.63C657,106.5,703.5,45.23,785.67,44.42c0,0,98.92-8.34,133.07,85.74,15.42,40.66,0,81.63,0,81.63s16.52-8.48,19.82,19.61-17.07,46.26-27,62.79c-1.65,12.11-6.06,16.52-12.12,17.07s-8.81,0-8.81,0-5.2,34.13-10.16,57.59S855.68,449.38,968,489.7c55.21,21.09,39.08,27.91,63.9,39.08,23.83,9.88,30.1,9.31,46.63,17.86s26.22,21.67,30.78,22.81,14.82-1.14,31.92,8,41.71,30.86,53.31,108.62c7.38,49.45-8,52.53-8,52.53,7.7,40,3.08,78.5,3.08,78.5,21.55,33.86,13.85,190.86,13.85,190.86s31.94,56.46,40,89.27c14.35,58.25,69.26,315.53,63.11,334s97,50.79,120,120.06c0,0,9.24,2.81,10.09,33.86-14.88,5.95-39.67-2.57-49.76-12.34-6.7-6.49-7.23-28.5-7.23-28.5-6.81-.85-14.89-10.2-14.89-5.1s26.8,92.72,26.8,114.84c8.76,30.54,7.2,49.51,6.27,53.24s-5.6,9.64-9.64,10c-1.62.13-11.84-7.48-15.72-16.21s-24.64-75.89-33.77-96.29c21.39,81.48,23.93,118,20.37,129.7s-24.14-3.5-29.74-21.32-25.92-125.38-27.95-102.46c0,0,20.14,101.89,12.44,114.92s-23.11-10.07-26.66-21.92-20.14-96.55-20.73-87.08c4.74,59.84,5.92,85.31.59,88.27s-11.82,6.89-20.11-10.29c-1.72-3.56-6.78-13.24-8.6-40.9-2.33-35.47-16.54-56-20.27-71.15-7.86-31.85-10.75-64.94-14.89-123.67,0,0-112.44-251-127.07-338.79-6.51-32.53-2.63-55.53-2.63-77.66-.69-11.75-35.27-117.55-34.58-168-17.44,54.58-69.23,254.29-33.93,354.28,15,42.48,29.24,138.48,39.3,209.38s-21.91,285-30.25,321.1-48.65,143.17-47.26,218.23c0,58.39-5.56,61.17,0,100.09,12.51,63.94,13.68,125.1,6.73,177.92s-63.72,197.39-72.06,248.82c0,0-13.9,32-7,84.8,19.46,22.24-1.39,25,1.39,33.36s5.56,45.87,15.29,59.77,16.68,34.75,22.24,57,26.26,25.08,33.36,43.09c4,10.22,4,31-2.09,34.71s-22.86-10.61-26.12-20.41c4.9,14.69,17.14,20,18.77,30.61s-4.4,21.07-19.28,18.82a.08.08,0,0,0-.06.14c13.93,11.34,6.35,23.53,2.54,25.22-3.48,1.55-17.55,2.75-22.27-1.23a.33.33,0,0,0-.52.37c5.41,16.51-.35,21.69-6.11,21.69s-16.51,1.51-22-8a.5.5,0,0,0-.93.26c-.37,25.35-15,29.78-20.83,29.78-6,0-25.5-6.37-34.42-45.47-2.13-7.65-3.83-14-8.08-17.85s-9.52,2.6-16.85-3.27c-3.65-2.93-5.11-60.06-2.43-63.9s1.77-66-3.21-83.59c-1.06-3.72-9.82,2.61-9.82-3.53,0,0,2.53-8.74-4-14.1s-14.57-16.11-14.57-37.2,14.57-81.29,16.11-87.42,8.81-27.61,10.35-58.67h0c1.53-13.42,2.3-7.66,3.07-15.72s7.28-49.46,2.3-58.28-6.91-23.39-10-30.67-1.92-53.68-7.29-69.79-13.3-122.59,22.77-188.55c5.16-8.25,2.07-38.14-1-58.75S787.1,1563,780,1518.83c-4.53,44.16-28.81,449.52-30.92,547.69-6.23,10.9-9.51,5.46-10.33,10.9s4.1,26.73.82,30.83-12.41,20.88-7.37,27c15.56,21.29,36.86,100.74,31.95,190-.82,17.2-9.83,27.85-12.29,32.76,2.46,15.56,4.91,45.05-5.73,62.25-7.38,12.29-7.38,95-1.64,107.3s14.74,58.15,22.93,116.31-33.58,66.34-33.58,66.34c3.33,17.35,6.75,120.63,2,131.57s-26.67,25.31-28.73,31.47-2.05,45.82-24.62,46.51c-9.53-.28-29-2.11-30-24.35-27.73,5.18-36.57-4.88-35.35-17.68-26.82,4.27-20.11-19.2-18.28-25C574.5,2856.45,584.26,2822.55,584.26,2822.55Z" transform="translate(-105.28 -42.73)"/><path id="back" class="cls-1" d="M2553,767.3c0-.12,0-.25.17-.29,1.84-.6,11.53-24.6,4.67-70.57-11.61-77.76-33.09-81.41-50.19-90.53A181.52,181.52,0,0,0,2470.87,591c-4.57-1.14-8.76-18.7-27.11-21.79-19.57-3.3-21.63-6.05-45.46-15.94-24.82-11.16-28.17-24.59-70.9-41.08-55.75-19.47-55.76-16.7-76.68-48.65-12.95-20.38-7.62-87.25-7.2-91.09a.22.22,0,0,1,.18-.2c14.51-3.56,61.2-66.29,57.91-94.27-3-25.46-23.58-13.08-27.41-10.54a.26.26,0,0,1-.39-.29c2.28-7.38,20.88-70.27,6.38-108.49-34.12-94-137.87-83.76-138.07-83.74h0c-82.18.81-123.7,65.08-128.79,88.74-5.08,20,4.86,68.87,8.06,100.72a.26.26,0,0,1-.33.27c-23.42-6.62-32.33,6.8-22.91,28.8,4,9.24,9.27,9.44,11.24,28.83,2.3,22.76,40.06,27.3,40.62,50.07.31,12.47,0,65.7.79,87.88a.24.24,0,0,1-.07.18c-1.88,1.93-41.52,42.71-51.55,43.48-26.39,1-93.44,43.8-117,62.42a.27.27,0,0,1-.15.05c-47.73,0-55.9,29.31-61.76,31.11-87.41,19.44-90.46,135.74-81.77,147.59s2,98.39-1.14,103.92a103.64,103.64,0,0,0-12.44,29.87c-4,15.79-6.11,137.08-3,181.39a.24.24,0,0,1,0,.18c-23.7,28.48-62.44,101.06-69.2,193.3-3.69,50.43-23.6,163.56-39.55,199.25-7.47,16.72-45.53,44.62-62.12,54.89-57.41,35.39-44.19,49.16-47.61,63.39a.26.26,0,0,1-.22.2c-8.78,1.22-28.48,34.46-18.28,36,30.52,1.4,44.62-8.1,49.91-18.46,3.17-6.22.61-12.75,3.69-17.42,1.26-1.9,18.67-8.1,17.88-6-11.32,30.38-25,123.31-31.13,132.82-5.4,8.41-11.62,48,8.49,42.91,11.88-3,23.9-50.71,36.35-82.74a2,2,0,0,1,3.87,1.11c-3.51,18.65-9,48-11.78,64.67-5.6,33.22,9.89,43,16.65,35.65,10.37-11.29,18.58-57.1,34.52-96.1a.27.27,0,0,1,.51.14c-1.92,10.48-9.13,51.35-7.75,67.81,1.58,18.95,17.32,22.48,21.27,15.37,12.63-22.9,22.67-76.18,29-92,1.58-4.74-8.09,78,4.55,76.45s22.1-23.52,22.9-74a.27.27,0,0,1,0-.12c15-26.9,37.45-109.9,35.6-161.87v-.06c10-47,56.93-147.31,68.34-171.55l0,0c45.54-62.62,57.19-137.45,52.93-164.52a.07.07,0,0,1,0,0c0-7.09,10.44-6.37,12.9-23.88,1.43-11.4-3.32-47,2.51-73.52,7.71-35,32.31-101.32,30-163.49a.26.26,0,0,1,.51-.09c73.78,203.11,36.43,304.67,30.75,354.38s-37.09,215.42-37.09,215.42c-24.4,108.25,59,437.4,72.07,487.49,5,19-3.16,145.43-2.48,163.21.59,15.6-4.18,38.75-4.86,47.64a476.92,476.92,0,0,0,1,124.44c3.42,24.63,67.08,209,61,259.1-2.93,24.28-4.48,56.61-12.36,69.93-4.79,8.21,7.73,45.16-5.88,61.68-7.59,9.22-2.55,82.46-2.58,82.5-27.32,39.22-18.06,116.73-13.93,125.46,5.16,10.93,11-1.84,12.87.61.61,17.78,19,11,19,11-.62,18.39,20.83,14.1,20.83,14.1,3.07,22.07,18.39,11,18.39,11,3.68,25.73,15.84,21.74,28.11,21.06,22.57-.68,29.13-47.38,31.18-53.54s-9.27-9.17-2.58-19.07c26.83-39.73,15.47-65.3,11.88-87.29-1.84-11.27-6-71.39-7.48-82.54-1.37-10.57,51.6-18.56,25.81-78.06-26.54-61.23-.95-55.19-17.41-71.1-7-6.74-2.84-109.59,4.53-121.87,12.35-19.59,3.38-31.92.92-47.51,0-.05,12.58-24.1,13.39-41.21,4.92-89.28-9.5-205.76-25.06-227.05-4.94-6.58-1.18-45.57-.36-51s7-6.39,7.21-10.59c5-99.59,27.79-454.31,32.74-507.29a.26.26,0,0,1,.52,0c7.36,56,25.51,507.91,28.56,528.22,3.09,20.61.16,47.81-5,56.06-27.76,70.82-19.2,205.35-13.83,221.46s1.47,57.15,6.29,67.78c14.34,31.67,11,90.17,6.15,95.68l-1.9,42.8c-7.72,36.52-43.88,105.45,7.7,143.05,0,24.1-1.45,73.27-8.68,87.25-23.13,44.34.49,75.68,11.09,81.94,4.34,62.67,10.61,64.69,36.15,74.53,10.13,3.57,18.8-6.08,18.32-14.75,20.73,13,23.62-15.43,23.62-15.43,23.62,12.54,20.73-15.91,20.73-15.91,16.39,16.88,17.84-16.87,17.84-16.87,28.44,13.5,20.07-69.32,18.25-79.28-2.53-13.89-7.65-34.48-21.63-44.12,3.38-33.74,6.27-92.07-4.82-102.19,2.89-41.94-8.68-91.59-13.5-102.68.41-6,10.07-3.89,7.45-10.22-14.13-34.14,60.62-217.78,64.38-285,3-53.19,6.25-88.2-10.73-155.92-5.56-38.93,0-41.71,0-100.09-1.39-75.06,38.92-182.09,47.26-218.24s40.31-250.2,30.25-321.1-26.86-166.07-39.3-209.37c-30.06-104.67,15.49-295.82,33.41-352.64a.26.26,0,0,1,.51.08c.09,51.1,38.88,161.62,39.59,173.3,0,0-2.25,45.66,4.25,78.18,12.89,77.32,99.08,283.53,122.12,334.58,6.45,14.3-4.94,1.84,1.52,46.14,3.33,22.87,34.64,109.91,37,145.38,1.82,27.66,3.21,41.54,8.41,46,14.85,12.85,19.29,5.9,20.92.5,1.76-5.84-1.47-23.79-6.21-83.62.59-9.48,19.95,79.87,19.95,93.31,0,12.37,16.36,25.53,24.06,12.49,7.62-12.89-8.63-109.53-9.06-111.69v-.07c2.06-22.76,25,86.45,30.62,104.27s20.31,30.3,27.07,19.55c6.42-10.22,1.09-47.21-19.48-126.3a.26.26,0,0,1,.49-.17c9.7,23.45,31.7,79,32.46,88.11.94,11.25,14,21.28,15.65,21.16,4-.31,8.71-6.22,9.64-10s2.49-22.69-6.26-53.21c0,0,2-2.91,2-2.93,0-22.17-28.79-106.84-28.79-111.94s7.92,4.06,14.68,5.07a.26.26,0,0,1,.22.24c.07,2.24,6,22.08,12.33,28.21,10.05,9.73,48.58,18.58,48,9.91-2-28.7-13.52-29.15-13.54-29.22-26.39-70.1-98.93-102.21-109.08-118.82-22.18-36.3-53.54-269.79-67.89-328-7.94-32.23-45-90.62-46.05-92.55,0,0,8.29-164.54-11.84-198.84C2546,823.1,2547.25,785.6,2553,767.3Z" transform="translate(-105.28 -42.73)"/></g><g id="components"><path id="neck-back" class="cls-1" d="M2150.19,508.75s-35.75-16.22-133.41-16.22c14.82-12.45,32.7-30.85,34-32.13a.24.24,0,0,0,.07-.18c-.79-22.18-.32-75.42-.79-87.88-1-25.95-4.68-57.72-4.68-57.72,39.9,27.34,85.57,39.16,104.86,39.9s81.36-19.95,98.36-35.47c-3.89,31.38-5,53.39-5,53.39-.42,3.84-5.75,70.71,7.2,91.09,10.46,16,15.69,23.27,25.28,29C2184.22,492.53,2150.19,508.75,2150.19,508.75Z" transform="translate(-105.28 -42.73)"/><path id="neck-front" class="cls-1" d="M975.16,492.53c-2.26-.92-4.65-1.86-7.21-2.83-112.27-40.32-92.42-97.39-87.46-120.85,0,0-49.21,54.5-60.51,57s-46.44,0-56.48-1.26-49-25.1-74.94-82.75c4,11.85,0,71.87.79,94,0,0-5.53-3.16-17.37,16.58-23.7,3.16-15.8,20.54-26.07,21.32-14.25.71-29.89,5.35-45.56,12-5,2.1-9.93,4.39-14.85,6.82,96.73,0,200.75,16.22,200.75,16.22C882.49,492.53,975.16,492.53,975.16,492.53Z" transform="translate(-105.28 -42.73)"/><path id="left-neck" class="cls-1" d="M817.45,504a1309.47,1309.47,0,0,1,157.71-11.48c-2.26-.92-4.65-1.86-7.21-2.83-112.27-40.32-92.42-97.39-87.46-120.85,0,0-49.21,54.5-60.51,57-.73.16-1.57.3-2.5.43,0,0,5.32,29,5.46,36.18C823.08,470.14,817.45,504,817.45,504Z" transform="translate(-105.28 -42.73)"/><path id="pharyngeal-discomfort" class="cls-1" d="M820,425.86c-.73.16-1.57.3-2.5.43-13.27,1.76-44.59-.51-54-1.69a28.23,28.23,0,0,1-8.57-3.24s-5.56,33.75-5.76,40.82,5.53,42.24,5.53,42.24c19.58,2.46,31.55,4.33,31.55,4.33,10.48-1.77,20.92-3.34,31.2-4.74,0,0,5.63-33.87,5.49-41.54-.14-7.2-5.46-36.18-5.46-36.18" transform="translate(-105.28 -42.73)"/><path id="right-neck" class="cls-1" d="M754.7,504.42c-38.17-4.81-105.28-11.89-169.2-11.89,4.92-2.43,9.89-4.72,14.85-6.82,15.67-6.62,31.31-11.26,45.56-12,10.27-.78,2.37-18.16,26.07-21.32,11.84-19.74,17.37-16.58,17.37-16.58-.79-22.12,3.16-82.14-.79-94,21.05,46.69,50.57,71.21,66.37,79.51,0,0-5.56,33.75-5.76,40.82S754.7,504.42,754.7,504.42Z" transform="translate(-105.28 -42.73)"/></g></svg>